<svg width="91" height="50" viewBox="0 0 91 50" fill="none" xmlns="http://www.w3.org/2000/svg">
<path d="M13.65 -3.33786e-06H22.05V49H12.39V10.22L3.15 12.81L0.77 4.55L13.65 -3.33786e-06ZM40.7203 -3.33786e-06H49.1203V49H39.4603V10.22L30.2203 12.81L27.8403 4.55L40.7203 -3.33786e-06ZM73.7406 17.85C78.454 17.85 82.4206 19.2733 85.6406 22.12C88.8606 24.92 90.4706 28.84 90.4706 33.88C90.4706 38.92 88.7673 42.8633 85.3606 45.71C82.0006 48.5567 77.8706 49.98 72.9706 49.98C69.004 49.98 65.504 49.0933 62.4706 47.32C59.4373 45.5467 57.244 42.9333 55.8906 39.48L64.1506 34.65C65.364 38.57 68.304 40.53 72.9706 40.53C75.444 40.53 77.3573 39.9467 78.7106 38.78C80.1106 37.5667 80.8106 35.9333 80.8106 33.88C80.8106 31.8733 80.134 30.2633 78.7806 29.05C77.4273 27.8367 75.584 27.23 73.2506 27.23H58.4106L60.3706 -3.33786e-06H88.1606V9.03H69.3306L68.7006 17.85H73.7406Z" fill="#666666"/>
</svg>
