<svg width="62" height="50" viewBox="0 0 62 50" fill="none" xmlns="http://www.w3.org/2000/svg">
<path d="M13.65 0.999997H22.05V50H12.39V11.22L3.15 13.81L0.77 5.55L13.65 0.999997ZM28.9603 50V42.79L45.6903 25.57C49.4236 21.65 51.2903 18.3833 51.2903 15.77C51.2903 13.8567 50.6836 12.3167 49.4703 11.15C48.3036 9.98333 46.787 9.4 44.9203 9.4C41.2336 9.4 38.5036 11.3133 36.7303 15.14L28.6103 10.38C30.1503 7.02 32.367 4.45333 35.2603 2.68C38.1536 0.906663 41.327 0.0199968 44.7803 0.0199968C49.2136 0.0199968 53.017 1.42 56.1903 4.22C59.3636 6.97333 60.9503 10.7067 60.9503 15.42C60.9503 20.5067 58.267 25.7333 52.9003 31.1L43.3103 40.69H61.7203V50H28.9603Z" fill="#666666"/>
</svg>
