<svg width="73" height="51" viewBox="0 0 73 51" fill="none" xmlns="http://www.w3.org/2000/svg">
<path d="M28.66 24.52C33.1867 27.2267 35.45 31.17 35.45 36.35C35.45 40.8767 33.8633 44.4467 30.69 47.06C27.5633 49.6733 23.2933 50.98 17.88 50.98C12.42 50.98 8.12667 49.6733 5 47.06C1.87333 44.4467 0.31 40.8767 0.31 36.35C0.31 31.17 2.55 27.2267 7.03 24.52C3.62333 22.0467 1.92 18.6633 1.92 14.37C1.92 9.84333 3.43667 6.32 6.47 3.8C9.55 1.28 13.3533 0.0199968 17.88 0.0199968C22.4067 0.0199968 26.1867 1.28 29.22 3.8C32.2533 6.32 33.77 9.84333 33.77 14.37C33.77 18.71 32.0667 22.0933 28.66 24.52ZM22.43 10.66C21.2633 9.63333 19.7467 9.12 17.88 9.12C16.0133 9.12 14.4967 9.63333 13.33 10.66C12.1633 11.6867 11.58 13.0867 11.58 14.86C11.58 16.6333 12.1633 18.0567 13.33 19.13C14.4967 20.1567 16.0133 20.67 17.88 20.67C19.7467 20.67 21.2633 20.1567 22.43 19.13C23.5967 18.0567 24.18 16.6333 24.18 14.86C24.18 13.0867 23.5967 11.6867 22.43 10.66ZM12.07 40.13C13.5633 41.2967 15.5 41.88 17.88 41.88C20.26 41.88 22.1733 41.2967 23.62 40.13C25.1133 38.9167 25.86 37.2367 25.86 35.09C25.86 32.99 25.1133 31.3567 23.62 30.19C22.1733 28.9767 20.26 28.37 17.88 28.37C15.5 28.37 13.5633 28.9767 12.07 30.19C10.6233 31.3567 9.9 32.99 9.9 35.09C9.9 37.2367 10.6233 38.9167 12.07 40.13ZM72.9952 21.23V29.7H61.4452V41.25H52.9752V29.7H41.4952V21.23H52.9752V9.75H61.4452V21.23H72.9952Z" fill="#666666"/>
</svg>
