<svg width="72" height="51" viewBox="0 0 72 51" fill="none" xmlns="http://www.w3.org/2000/svg">
<path d="M36.1 17.03C36.1 20.81 35.12 24.1233 33.16 26.97H33.23L17.97 50H6.91L17.83 34.04C12.7433 33.9467 8.59 32.3367 5.37 29.21C2.19667 26.0367 0.61 21.9767 0.61 17.03C0.61 12.0367 2.24333 7.95333 5.51 4.78C8.82333 1.60666 13.0933 0.0199968 18.32 0.0199968C23.5933 0.0199968 27.8633 1.60666 31.13 4.78C34.4433 7.90666 36.1 11.99 36.1 17.03ZM10.2 17.03C10.2 19.4567 10.97 21.3933 12.51 22.84C14.0967 24.2867 16.0333 25.01 18.32 25.01C20.7 25.01 22.66 24.2867 24.2 22.84C25.74 21.3933 26.51 19.4567 26.51 17.03C26.51 14.6033 25.74 12.69 24.2 11.29C22.66 9.84333 20.7 9.12 18.32 9.12C16.0333 9.12 14.0967 9.84333 12.51 11.29C10.97 12.7367 10.2 14.65 10.2 17.03ZM54.557 18.85C59.2704 18.85 63.237 20.2733 66.457 23.12C69.677 25.92 71.287 29.84 71.287 34.88C71.287 39.92 69.5837 43.8633 66.177 46.71C62.817 49.5567 58.687 50.98 53.787 50.98C49.8204 50.98 46.3204 50.0933 43.287 48.32C40.2537 46.5467 38.0604 43.9333 36.707 40.48L44.967 35.65C46.1804 39.57 49.1204 41.53 53.787 41.53C56.2604 41.53 58.1737 40.9467 59.527 39.78C60.927 38.5667 61.627 36.9333 61.627 34.88C61.627 32.8733 60.9504 31.2633 59.597 30.05C58.2437 28.8367 56.4004 28.23 54.067 28.23H39.227L41.187 0.999997H68.977V10.03H50.147L49.517 18.85H54.557Z" fill="#666666"/>
</svg>
